<mxfile host="drawio-plugin" modified="2023-06-03T13:52:08.951Z" agent="5.0 (X11; Linux x86_64) AppleWebKit/537.36 (KHTML, like Gecko) Chrome/104.0.5112.102 Safari/537.36" etag="BeMfg_P4kEZUr2EKlj8D" version="20.5.3" type="embed"><diagram id="wyrxB3eUI-DIBdCm7QZy" name="Page-1"><mxGraphModel dx="1645" dy="1926" grid="1" gridSize="10" guides="1" tooltips="1" connect="1" arrows="1" fold="1" page="1" pageScale="1" pageWidth="827" pageHeight="1169" math="0" shadow="0"><root><mxCell id="0"/><mxCell id="1" parent="0"/><mxCell id="3" value="«interface»&lt;br&gt;&lt;b&gt;BaseRecipeInterface&lt;/b&gt;" style="html=1;fillColor=#fff2cc;strokeColor=#d6b656;" parent="1" vertex="1"><mxGeometry x="117" y="40" width="140" height="40" as="geometry"/></mxCell><mxCell id="4" value="«interface»&lt;br&gt;&lt;b&gt;RecipeInterface&lt;/b&gt;" style="html=1;fillColor=#fff2cc;strokeColor=#d6b656;" parent="1" vertex="1"><mxGeometry x="27" y="160" width="120" height="40" as="geometry"/></mxCell><mxCell id="5" value="«interface»&lt;br&gt;&lt;b&gt;PlanInterface&lt;/b&gt;" style="html=1;fillColor=#fff2cc;strokeColor=#d6b656;" parent="1" vertex="1"><mxGeometry x="227" y="160" width="120" height="40" as="geometry"/></mxCell><mxCell id="6" value="" style="endArrow=block;endSize=16;endFill=0;html=1;rounded=0;exitX=0.5;exitY=0;exitDx=0;exitDy=0;entryX=0.5;entryY=1;entryDx=0;entryDy=0;" parent="1" source="4" target="3" edge="1"><mxGeometry x="0.2222" y="-10" width="160" relative="1" as="geometry"><mxPoint x="87" y="230" as="sourcePoint"/><mxPoint x="247" y="230" as="targetPoint"/><Array as="points"><mxPoint x="87" y="120"/><mxPoint x="187" y="120"/></Array><mxPoint as="offset"/></mxGeometry></mxCell><mxCell id="7" value="" style="endArrow=block;endSize=16;endFill=0;html=1;rounded=0;exitX=0.5;exitY=0;exitDx=0;exitDy=0;" parent="1" source="5" edge="1"><mxGeometry x="0.2222" y="-10" width="160" relative="1" as="geometry"><mxPoint x="97" y="170" as="sourcePoint"/><mxPoint x="187" y="80" as="targetPoint"/><Array as="points"><mxPoint x="287" y="120"/><mxPoint x="187" y="120"/></Array><mxPoint as="offset"/></mxGeometry></mxCell><mxCell id="8" value="«interface»&lt;br&gt;&lt;b&gt;BoolInterface&lt;/b&gt;" style="html=1;fillColor=#fff2cc;strokeColor=#d6b656;" parent="1" vertex="1"><mxGeometry x="425" y="160" width="120" height="40" as="geometry"/></mxCell><mxCell id="9" value="«interface»&lt;br&gt;&lt;b&gt;CookingSupervisorInterface&lt;/b&gt;" style="html=1;" parent="1" vertex="1"><mxGeometry x="827" y="160" width="180" height="40" as="geometry"/></mxCell><mxCell id="10" value="«interface»&lt;br&gt;&lt;b&gt;ChefInterface&lt;/b&gt;" style="html=1;fillColor=#fff2cc;strokeColor=#d6b656;" parent="1" vertex="1"><mxGeometry x="627" y="160" width="120" height="40" as="geometry"/></mxCell><mxCell id="11" value="Reipe" style="html=1;fillColor=#dae8fc;strokeColor=#6c8ebf;shadow=1;" parent="1" vertex="1"><mxGeometry x="27" y="280" width="120" height="40" as="geometry"/></mxCell><mxCell id="12" value="&amp;lt;&amp;lt;Plan&amp;gt;&amp;gt;" style="html=1;fillColor=#d5e8d4;strokeColor=#82b366;" parent="1" vertex="1"><mxGeometry x="227" y="280" width="120" height="40" as="geometry"/></mxCell><mxCell id="13" value="Bowl" style="html=1;fillColor=#dae8fc;strokeColor=#6c8ebf;" parent="1" vertex="1"><mxGeometry x="407" y="280" width="110" height="40" as="geometry"/></mxCell><mxCell id="14" value="DynamicBowl" style="html=1;fillColor=#dae8fc;strokeColor=#6c8ebf;" parent="1" vertex="1"><mxGeometry x="407" y="330" width="110" height="40" as="geometry"/></mxCell><mxCell id="15" value="FiberBowl" style="html=1;fillColor=#dae8fc;strokeColor=#6c8ebf;" parent="1" vertex="1"><mxGeometry x="407" y="430" width="110" height="40" as="geometry"/></mxCell><mxCell id="16" value="RecipeBowl" style="html=1;fillColor=#dae8fc;strokeColor=#6c8ebf;" parent="1" vertex="1"><mxGeometry x="407" y="380" width="110" height="40" as="geometry"/></mxCell><mxCell id="17" value="DynamicFiberBowl" style="html=1;fillColor=#dae8fc;strokeColor=#6c8ebf;" parent="1" vertex="1"><mxGeometry x="407" y="480" width="110" height="40" as="geometry"/></mxCell><mxCell id="18" value="FiberRecipeBowl" style="html=1;fillColor=#dae8fc;strokeColor=#6c8ebf;" parent="1" vertex="1"><mxGeometry x="407" y="530" width="110" height="40" as="geometry"/></mxCell><mxCell id="19" value="" style="endArrow=block;dashed=1;endFill=0;endSize=12;html=1;rounded=0;entryX=0.936;entryY=1.011;entryDx=0;entryDy=0;entryPerimeter=0;exitX=1;exitY=0.5;exitDx=0;exitDy=0;" parent="1" source="13" target="8" edge="1"><mxGeometry width="160" relative="1" as="geometry"><mxPoint x="427" y="380" as="sourcePoint"/><mxPoint x="587" y="380" as="targetPoint"/><Array as="points"><mxPoint x="537" y="300"/></Array></mxGeometry></mxCell><mxCell id="27" value="" style="endArrow=none;dashed=1;html=1;rounded=0;exitX=1;exitY=0.5;exitDx=0;exitDy=0;" parent="1" source="14" edge="1"><mxGeometry width="50" height="50" relative="1" as="geometry"><mxPoint x="477" y="400" as="sourcePoint"/><mxPoint x="537" y="300" as="targetPoint"/><Array as="points"><mxPoint x="537" y="350"/></Array></mxGeometry></mxCell><mxCell id="28" value="" style="endArrow=none;dashed=1;html=1;rounded=0;exitX=1;exitY=0.5;exitDx=0;exitDy=0;" parent="1" edge="1"><mxGeometry width="50" height="50" relative="1" as="geometry"><mxPoint x="517" y="400" as="sourcePoint"/><mxPoint x="537" y="350" as="targetPoint"/><Array as="points"><mxPoint x="537" y="400"/></Array></mxGeometry></mxCell><mxCell id="29" value="" style="endArrow=none;dashed=1;html=1;rounded=0;exitX=1;exitY=0.5;exitDx=0;exitDy=0;" parent="1" edge="1"><mxGeometry width="50" height="50" relative="1" as="geometry"><mxPoint x="517" y="450" as="sourcePoint"/><mxPoint x="537" y="400" as="targetPoint"/><Array as="points"><mxPoint x="537" y="450"/></Array></mxGeometry></mxCell><mxCell id="30" value="" style="endArrow=none;dashed=1;html=1;rounded=0;exitX=1;exitY=0.5;exitDx=0;exitDy=0;" parent="1" edge="1"><mxGeometry width="50" height="50" relative="1" as="geometry"><mxPoint x="517" y="500" as="sourcePoint"/><mxPoint x="537" y="450" as="targetPoint"/><Array as="points"><mxPoint x="537" y="500"/></Array></mxGeometry></mxCell><mxCell id="31" value="" style="endArrow=none;dashed=1;html=1;rounded=0;exitX=1;exitY=0.5;exitDx=0;exitDy=0;" parent="1" edge="1"><mxGeometry width="50" height="50" relative="1" as="geometry"><mxPoint x="517" y="550" as="sourcePoint"/><mxPoint x="537" y="500" as="targetPoint"/><Array as="points"><mxPoint x="537" y="550"/></Array></mxGeometry></mxCell><mxCell id="32" value="" style="endArrow=block;dashed=1;endFill=0;endSize=12;html=1;rounded=0;entryX=0.5;entryY=1;entryDx=0;entryDy=0;exitX=0.5;exitY=0;exitDx=0;exitDy=0;" parent="1" source="12" target="5" edge="1"><mxGeometry width="160" relative="1" as="geometry"><mxPoint x="347" y="269.56" as="sourcePoint"/><mxPoint x="367.32000000000005" y="169.99999999999994" as="targetPoint"/><Array as="points"/></mxGeometry></mxCell><mxCell id="33" value="" style="endArrow=block;dashed=1;endFill=0;endSize=12;html=1;rounded=0;entryX=0.5;entryY=1;entryDx=0;entryDy=0;exitX=0.5;exitY=0;exitDx=0;exitDy=0;" parent="1" edge="1"><mxGeometry width="160" relative="1" as="geometry"><mxPoint x="86.58000000000001" y="280.0000000000001" as="sourcePoint"/><mxPoint x="86.58000000000001" y="200" as="targetPoint"/><Array as="points"/></mxGeometry></mxCell><mxCell id="34" value="DishClass" style="html=1;fillColor=#dae8fc;strokeColor=#6c8ebf;" parent="1" vertex="1"><mxGeometry x="425" width="120" height="40" as="geometry"/></mxCell><mxCell id="60" value="" style="edgeStyle=orthogonalEdgeStyle;rounded=0;orthogonalLoop=1;jettySize=auto;html=1;" parent="1" source="35" target="59" edge="1"><mxGeometry relative="1" as="geometry"/></mxCell><mxCell id="35" value="PlanSupervisor" style="html=1;fillColor=#dae8fc;strokeColor=#6c8ebf;" parent="1" vertex="1"><mxGeometry x="827" y="280" width="180" height="40" as="geometry"/></mxCell><mxCell id="38" value="" style="endArrow=block;dashed=1;endFill=0;endSize=12;html=1;rounded=0;entryX=0.5;entryY=1;entryDx=0;entryDy=0;exitX=0.5;exitY=0;exitDx=0;exitDy=0;" parent="1" edge="1"><mxGeometry width="160" relative="1" as="geometry"><mxPoint x="916.58" y="280.0000000000001" as="sourcePoint"/><mxPoint x="916.58" y="200" as="targetPoint"/><Array as="points"/></mxGeometry></mxCell><mxCell id="39" value="&lt;p style=&quot;margin:0px;margin-top:6px;text-align:center;&quot;&gt;&lt;b&gt;BasePlanTrait&lt;/b&gt;&lt;/p&gt;" style="align=left;overflow=fill;html=1;dropTarget=0;fillColor=#ffe6cc;strokeColor=#d79b00;" parent="1" vertex="1"><mxGeometry x="157" y="370" width="190" height="40" as="geometry"/></mxCell><mxCell id="40" value="" style="shape=component;jettyWidth=8;jettyHeight=4;" parent="39" vertex="1"><mxGeometry x="1" width="20" height="20" relative="1" as="geometry"><mxPoint x="-24" y="4" as="offset"/></mxGeometry></mxCell><mxCell id="41" value="" style="endArrow=block;endSize=16;endFill=0;html=1;rounded=0;" parent="1" edge="1"><mxGeometry x="0.006" y="-39" width="160" relative="1" as="geometry"><mxPoint x="267" y="320" as="sourcePoint"/><mxPoint x="267" y="370" as="targetPoint"/><mxPoint as="offset"/></mxGeometry></mxCell><mxCell id="42" value="" style="endArrow=diamondThin;endFill=1;endSize=24;html=1;rounded=0;" parent="1" edge="1"><mxGeometry width="160" relative="1" as="geometry"><mxPoint x="147" y="300" as="sourcePoint"/><mxPoint x="227" y="299.58" as="targetPoint"/></mxGeometry></mxCell><mxCell id="44" value="" style="endArrow=diamondThin;endFill=1;endSize=24;html=1;rounded=0;entryX=0.75;entryY=0;entryDx=0;entryDy=0;exitX=0;exitY=0.5;exitDx=0;exitDy=0;" parent="1" source="8" target="12" edge="1"><mxGeometry width="160" relative="1" as="geometry"><mxPoint x="157" y="310.0000000000001" as="sourcePoint"/><mxPoint x="236.9999999999999" y="309.5799999999999" as="targetPoint"/><Array as="points"><mxPoint x="360" y="180"/><mxPoint x="360" y="240"/><mxPoint x="317" y="240"/></Array></mxGeometry></mxCell><mxCell id="45" value="" style="endArrow=diamondThin;endFill=1;endSize=24;html=1;rounded=0;entryX=0.5;entryY=1;entryDx=0;entryDy=0;exitX=0;exitY=0.5;exitDx=0;exitDy=0;" parent="1" source="8" target="11" edge="1"><mxGeometry width="160" relative="1" as="geometry"><mxPoint x="108" y="440" as="sourcePoint"/><mxPoint x="246.9999999999999" y="319.5799999999999" as="targetPoint"/><Array as="points"><mxPoint x="360" y="180"/><mxPoint x="360" y="440"/><mxPoint x="86" y="440"/></Array></mxGeometry></mxCell><mxCell id="46" value="Use" style="endArrow=open;endSize=12;dashed=1;html=1;rounded=0;exitX=0;exitY=0.5;exitDx=0;exitDy=0;entryX=0;entryY=0.5;entryDx=0;entryDy=0;" parent="1" source="16" target="3" edge="1"><mxGeometry x="0.8267" y="10" width="160" relative="1" as="geometry"><mxPoint x="97" y="510" as="sourcePoint"/><mxPoint x="257" y="510" as="targetPoint"/><Array as="points"><mxPoint x="380" y="400"/><mxPoint x="380" y="470"/><mxPoint y="470"/><mxPoint y="60"/></Array><mxPoint as="offset"/></mxGeometry></mxCell><mxCell id="47" value="Use" style="endArrow=open;endSize=12;dashed=1;html=1;rounded=0;entryX=0;entryY=0.5;entryDx=0;entryDy=0;exitX=0;exitY=0.5;exitDx=0;exitDy=0;" parent="1" source="18" edge="1"><mxGeometry x="0.8267" y="10" width="160" relative="1" as="geometry"><mxPoint x="400" y="550" as="sourcePoint"/><mxPoint x="117" y="60" as="targetPoint"/><Array as="points"><mxPoint x="380" y="550"/><mxPoint x="380" y="470"/><mxPoint y="470"/><mxPoint y="60"/></Array><mxPoint as="offset"/></mxGeometry></mxCell><mxCell id="49" value="Use" style="endArrow=open;endSize=12;dashed=1;html=1;rounded=0;entryX=1;entryY=0.5;entryDx=0;entryDy=0;exitX=0;exitY=0.5;exitDx=0;exitDy=0;" parent="1" source="10" target="8" edge="1"><mxGeometry width="160" relative="1" as="geometry"><mxPoint x="470" y="330" as="sourcePoint"/><mxPoint x="630" y="330" as="targetPoint"/></mxGeometry></mxCell><mxCell id="50" value="Use" style="endArrow=open;endSize=12;dashed=1;html=1;rounded=0;entryX=0;entryY=0.5;entryDx=0;entryDy=0;exitX=1;exitY=0.5;exitDx=0;exitDy=0;" parent="1" source="10" target="9" edge="1"><mxGeometry width="160" relative="1" as="geometry"><mxPoint x="637" y="190" as="sourcePoint"/><mxPoint x="555" y="190" as="targetPoint"/></mxGeometry></mxCell><mxCell id="51" value="«interface»&lt;br&gt;&lt;b&gt;DishInterface&lt;/b&gt;" style="html=1;fillColor=#fff2cc;strokeColor=#d6b656;" parent="1" vertex="1"><mxGeometry x="425" y="80" width="120" height="40" as="geometry"/></mxCell><mxCell id="52" value="" style="endArrow=block;dashed=1;endFill=0;endSize=12;html=1;rounded=0;entryX=0.5;entryY=0;entryDx=0;entryDy=0;exitX=0.5;exitY=1;exitDx=0;exitDy=0;" parent="1" source="34" target="51" edge="1"><mxGeometry width="160" relative="1" as="geometry"><mxPoint x="297" y="290" as="sourcePoint"/><mxPoint x="297" y="210" as="targetPoint"/><Array as="points"/></mxGeometry></mxCell><mxCell id="53" value="Use" style="endArrow=open;endSize=12;dashed=1;html=1;rounded=0;entryX=1;entryY=0.5;entryDx=0;entryDy=0;exitX=0.408;exitY=0.038;exitDx=0;exitDy=0;exitPerimeter=0;" parent="1" source="10" target="51" edge="1"><mxGeometry x="0.117" y="-20" width="160" relative="1" as="geometry"><mxPoint x="637" y="190" as="sourcePoint"/><mxPoint x="555" y="190" as="targetPoint"/><Array as="points"><mxPoint x="676" y="100"/></Array><mxPoint as="offset"/></mxGeometry></mxCell><mxCell id="55" value="" style="endArrow=diamondThin;endFill=1;endSize=24;html=1;rounded=0;exitX=0;exitY=0.5;exitDx=0;exitDy=0;" parent="1" source="34" edge="1"><mxGeometry width="160" relative="1" as="geometry"><mxPoint x="424.9999999999998" y="180" as="sourcePoint"/><mxPoint x="87" y="320" as="targetPoint"/><Array as="points"><mxPoint x="360" y="20"/><mxPoint x="360" y="440"/><mxPoint x="87" y="440"/></Array></mxGeometry></mxCell><mxCell id="56" value="«interface»&lt;br&gt;&lt;b&gt;PromiseInterface&lt;/b&gt;" style="html=1;fillColor=#fff2cc;strokeColor=#d6b656;" parent="1" vertex="1"><mxGeometry x="625.5" y="360" width="123" height="40" as="geometry"/></mxCell><mxCell id="57" value="Promise" style="html=1;fillColor=#dae8fc;strokeColor=#6c8ebf;" parent="1" vertex="1"><mxGeometry x="625.5" y="440" width="123" height="40" as="geometry"/></mxCell><mxCell id="58" value="" style="endArrow=block;dashed=1;endFill=0;endSize=12;html=1;rounded=0;entryX=0.5;entryY=1;entryDx=0;entryDy=0;exitX=0.5;exitY=0;exitDx=0;exitDy=0;" parent="1" source="57" target="56" edge="1"><mxGeometry width="160" relative="1" as="geometry"><mxPoint x="715.0799999999999" y="450" as="sourcePoint"/><mxPoint x="715.0799999999999" y="370" as="targetPoint"/><Array as="points"/></mxGeometry></mxCell><mxCell id="59" value="PlanSupervisor" style="html=1;fillColor=#fff2cc;strokeColor=#d6b656;" parent="1" vertex="1"><mxGeometry x="827" y="160" width="180" height="40" as="geometry"/></mxCell><mxCell id="62" value="Chef" style="html=1;fillColor=#dae8fc;strokeColor=#6c8ebf;rounded=1;sketch=0;shadow=1;" parent="1" vertex="1"><mxGeometry x="632" y="280" width="110" height="40" as="geometry"/></mxCell><mxCell id="63" value="" style="endArrow=block;dashed=1;endFill=0;endSize=12;html=1;rounded=0;entryX=0.5;entryY=1;entryDx=0;entryDy=0;exitX=0.5;exitY=0;exitDx=0;exitDy=0;" parent="1" edge="1"><mxGeometry width="160" relative="1" as="geometry"><mxPoint x="686.6599999999999" y="280" as="sourcePoint"/><mxPoint x="686.6599999999999" y="200" as="targetPoint"/><Array as="points"/></mxGeometry></mxCell></root></mxGraphModel></diagram></mxfile>